<svg height="512pt" viewBox="0 -13 512 512" width="512pt" xmlns="http://www.w3.org/2000/svg"><path d="m131.25 259.515625c-.648438 0-1.3125-.058594-1.949219-.191406-.640625-.128907-1.269531-.316407-1.871093-.566407-.609376-.25-1.191407-.5625-1.730469-.921874-.550781-.359376-1.058594-.78125-1.519531-1.238282-.460938-.472656-.878907-.980468-1.238282-1.523437-.359375-.550781-.671875-1.128907-.921875-1.726563-.25-.601562-.4375-1.230468-.570312-1.871094-.128907-.648437-.199219-1.300781-.199219-1.960937 0-.648437.070312-1.300781.199219-1.949219.132812-.640625.320312-1.269531.570312-1.871094.25-.597656.5625-1.179687.921875-1.726562.359375-.542969.777344-1.0625 1.238282-1.523438.460937-.457031.96875-.878906 1.519531-1.238281.542969-.359375 1.121093-.671875 1.730469-.921875.601562-.25 1.230468-.4375 1.871093-.566406 1.289063-.261719 2.609375-.261719 3.910157 0 .628906.128906 1.257812.316406 1.867187.566406.601563.25 1.183594.5625 1.722656.921875.550781.359375 1.058594.78125 1.519531 1.238281.460938.460938.878907.980469 1.25 1.523438.359376.546875.671876 1.128906.921876 1.726562.25.601563.4375 1.230469.566406 1.871094.132812.648438.191406 1.300782.191406 1.949219 0 .660156-.0625 1.308594-.191406 1.960937-.128906.640626-.316406 1.269532-.566406 1.871094-.25.597656-.5625 1.179688-.921876 1.726563-.371093.542969-.789062 1.050781-1.25 1.523437-.460937.457032-.96875.878906-1.519531 1.238282-.539062.359374-1.121093.671874-1.722656.921874-.609375.25-1.238281.4375-1.867187.566407-.652344.132812-1.3125.191406-1.960938.191406zm0 0"/><path d="m293.726562 163.722656c-32.59375 0-59.109374-26.523437-59.109374-59.121094 0-32.597656 26.515624-59.121093 59.109374-59.121093 32.589844 0 59.105469 26.523437 59.105469 59.121093 0 32.597657-26.515625 59.121094-59.105469 59.121094zm0-98.242187c-21.566406 0-39.109374 17.546875-39.109374 39.121093 0 21.570313 17.542968 39.117188 39.109374 39.117188 21.5625 0 39.105469-17.546875 39.105469-39.117188 0-21.574218-17.542969-39.121093-39.105469-39.121093zm0 0"/><path d="m498.855469 231.96875c-8.226563-5.054688-18.28125-5.460938-26.890625-1.097656l-49.679688 25.1875v-16.195313c0-27.9375-22.726562-50.664062-50.660156-50.664062h-16.464844c26.125-19.035157 43.140625-49.867188 43.140625-84.597657 0-57.679687-46.914062-104.601562-104.578125-104.601562-41.714844 0-77.800781 24.558594-94.574218 59.976562-16.769532-35.417968-52.859376-59.976562-94.574219-59.976562-57.664063 0-104.574219 46.925781-104.574219 104.601562 0 35.945313 18.222656 67.710938 45.910156 86.550782-21.179687 6.070312-36.722656 25.609375-36.722656 48.710937v195.386719c0 27.933594 22.726562 50.660156 50.664062 50.660156h311.773438c27.933594 0 50.660156-22.726562 50.660156-50.660156v-16.195312l49.679688 25.183593c3.960937 2.011719 8.226562 3.007813 12.480468 3.007813 4.992188 0 9.96875-1.375 14.410157-4.101563 8.230469-5.054687 13.144531-13.839843 13.144531-23.5v-164.175781c0-9.660156-4.914062-18.445312-13.144531-23.5zm-205.128907-211.96875c46.632813 0 84.574219 37.953125 84.574219 84.601562 0 46.648438-37.941406 84.597657-84.574219 84.597657-46.636718 0-84.578124-37.949219-84.578124-84.597657 0-46.648437 37.941406-84.601562 84.578124-84.601562zm-61.4375 169.199219h-66.277343c14.125-10.292969 25.589843-24.035157 33.136719-39.976563 7.550781 15.941406 19.011718 29.683594 33.140624 39.976563zm-212.289062-84.597657c0-46.648437 37.941406-84.601562 84.574219-84.601562 46.636719 0 84.574219 37.953125 84.574219 84.601562 0 46.648438-37.9375 84.597657-84.574219 84.597657-46.632813 0-84.574219-37.949219-84.574219-84.597657zm39.851562 104.597657h311.773438c16.792969 0 30.476562 13.570312 30.660156 30.320312h-217.714844c-5.523437 0-10 4.476563-10 10 0 5.523438 4.476563 10 10 10h217.714844v156.070313h-373.097656v-156.070313h51.425781c5.523438 0 10-4.476562 10-10 0-5.523437-4.476562-10-10-10h-51.421875c.183594-16.75 13.867188-30.320312 30.660156-30.320312zm311.773438 256.710937h-311.773438c-16.792968 0-30.476562-13.570312-30.660156-30.320312h373.09375c-.183594 16.75-13.867187 30.320312-30.660156 30.320312zm120.375-46.265625c0 3.824219-2.523438 5.789063-3.609375 6.457031-1.085937.664063-3.976563 2.027344-7.382813.300782l-58.722656-29.773438v-118.148437l58.722656-29.769531c3.402344-1.726563 6.296876-.367188 7.382813.300781 1.085937.664062 3.609375 2.628906 3.609375 6.453125zm0 0"/><path d="m104.574219 163.722656c-32.589844 0-59.105469-26.523437-59.105469-59.121094 0-32.597656 26.515625-59.121093 59.105469-59.121093 32.589843 0 59.109375 26.523437 59.109375 59.121093 0 32.597657-26.515625 59.121094-59.109375 59.121094zm0-98.242187c-21.5625 0-39.105469 17.546875-39.105469 39.121093 0 21.570313 17.542969 39.117188 39.105469 39.117188s39.109375-17.546875 39.109375-39.117188c0-21.574218-17.542969-39.121093-39.109375-39.121093zm0 0"/><path d="m188.574219 394.769531c-4.070313 0-8.148438-1.050781-11.894531-3.160156-7.722657-4.347656-12.332032-12.238281-12.332032-21.101563v-65.902343c0-8.863281 4.609375-16.753907 12.335938-21.101563 7.714844-4.351562 16.851562-4.203125 24.433594.390625l54.347656 32.953125c7.300781 4.425782 11.664062 12.167969 11.664062 20.710938 0 8.539062-4.363281 16.285156-11.664062 20.710937l-54.347656 32.949219c-3.902344 2.367188-8.222657 3.550781-12.542969 3.550781zm.007812-94.410156c-.890625 0-1.625.308594-2.085937.566406-.804688.453125-2.148438 1.53125-2.148438 3.679688v65.898437c0 2.148438 1.347656 3.226563 2.148438 3.679688.800781.453125 2.417968 1.042968 4.25-.070313l54.347656-32.949219c1.769531-1.070312 2.035156-2.722656 2.035156-3.609374 0-.886719-.265625-2.535157-2.035156-3.609376l-54.347656-32.949218c-.773438-.472656-1.511719-.636719-2.164063-.636719zm0 0"/></svg>